<svg width="130" height="54" viewBox="0 0 130 54" fill="none" xmlns="http://www.w3.org/2000/svg">
<rect x="0.5" y="0.5" width="129" height="53" rx="26.5" fill="#141414"/>
<rect x="0.5" y="0.5" width="129" height="53" rx="26.5" stroke="#262626"/>
<path d="M40.497 39.6234L40.4878 39.6185L40.4557 39.6011C40.4284 39.5862 40.3893 39.5648 40.3392 39.5369C40.2391 39.481 40.0951 39.3993 39.9134 39.2923C39.55 39.0786 39.0353 38.7639 38.4196 38.3546C37.1902 37.5373 35.5476 36.336 33.9005 34.8006C30.6411 31.7622 27.1875 27.2481 27.1875 21.6875C27.1875 17.5394 30.6776 14.25 34.8906 14.25C37.3682 14.25 39.5866 15.382 41 17.1564C42.4134 15.382 44.6318 14.25 47.1094 14.25C51.3224 14.25 54.8125 17.5394 54.8125 21.6875C54.8125 27.2481 51.3589 31.7622 48.0995 34.8006C46.4524 36.336 44.8098 37.5373 43.5804 38.3546C42.9647 38.7639 42.45 39.0786 42.0866 39.2923C41.9049 39.3993 41.7609 39.481 41.6608 39.5369C41.6107 39.5648 41.5716 39.5862 41.5443 39.6011L41.5122 39.6185L41.503 39.6234L41.4991 39.6255C41.1874 39.791 40.8126 39.791 40.5009 39.6255L40.497 39.6234Z" fill="#FF5500"/>
<path d="M71.6152 33.5H63.6963V32.5244C64.7803 31.5986 65.7031 30.752 66.4648 29.9844C67.2324 29.2168 67.8564 28.5049 68.3369 27.8486C68.8174 27.1924 69.1689 26.5742 69.3916 25.9941C69.6201 25.4141 69.7344 24.8516 69.7344 24.3066C69.7344 23.7383 69.626 23.2373 69.4092 22.8037C69.1924 22.3643 68.8906 22.0244 68.5039 21.7842C68.1172 21.5381 67.6689 21.415 67.1592 21.415C66.5791 21.415 66.0254 21.582 65.498 21.916C64.9766 22.2441 64.5488 22.6982 64.2148 23.2783L63.3623 22.3203C63.8135 21.6055 64.3965 21.0488 65.1113 20.6504C65.8262 20.252 66.5938 20.0527 67.4141 20.0527C68.1758 20.0527 68.8496 20.2227 69.4355 20.5625C70.0215 20.8965 70.4814 21.3594 70.8154 21.9512C71.1494 22.543 71.3164 23.2256 71.3164 23.999C71.3164 24.626 71.1992 25.2734 70.9648 25.9414C70.7305 26.6035 70.3818 27.2803 69.9189 27.9717C69.4561 28.6572 68.8818 29.3486 68.1963 30.0459C67.5166 30.7432 66.7314 31.4404 65.8408 32.1377H71.6152V33.5ZM80.6729 33.5H79.126V30.3535H72.4903V29.1318L79.1348 20.3164H80.6729V28.9912H82.2813V30.3535H80.6729V33.5ZM74.2481 28.9912H79.126V22.5137L74.2481 28.9912ZM84.4307 33.6758C84.1729 33.6758 83.962 33.5967 83.7979 33.4385C83.6397 33.2744 83.5606 33.0635 83.5606 32.8057C83.5606 32.542 83.6397 32.3281 83.7979 32.1641C83.962 32 84.1729 31.918 84.4307 31.918C84.6886 31.918 84.8995 32 85.0636 32.1641C85.2335 32.3281 85.3184 32.542 85.3184 32.8057C85.3184 33.0635 85.2335 33.2744 85.0636 33.4385C84.8995 33.5967 84.6886 33.6758 84.4307 33.6758ZM86.6857 32.0762L87.5382 30.8545C87.8195 31.335 88.215 31.7129 88.7247 31.9883C89.2345 32.2578 89.7999 32.3926 90.421 32.3926C91.0304 32.3926 91.5665 32.2666 92.0294 32.0146C92.4923 31.7568 92.8527 31.4023 93.1105 30.9512C93.3683 30.4941 93.4972 29.9668 93.4972 29.3691C93.4972 28.7715 93.3683 28.2471 93.1105 27.7959C92.8527 27.3389 92.4923 26.9844 92.0294 26.7324C91.5665 26.4805 91.0333 26.3545 90.4298 26.3545C90.0255 26.3545 89.6446 26.416 89.2872 26.5391C88.9357 26.6562 88.6163 26.8291 88.3292 27.0576L87.5382 26.5566L88.1183 20.3164H94.4816V21.6875H89.5421L89.173 25.4404C89.671 25.2705 90.2042 25.1855 90.7726 25.1855C91.6163 25.1855 92.3605 25.3672 93.005 25.7305C93.6495 26.0879 94.1534 26.583 94.5167 27.2158C94.8859 27.8486 95.0704 28.5811 95.0704 29.4131C95.0704 30.2686 94.8771 31.0244 94.4904 31.6807C94.1036 32.3311 93.5675 32.8408 92.882 33.21C92.1964 33.5791 91.4054 33.7637 90.5089 33.7637C89.7296 33.7637 89.0089 33.6172 88.3468 33.3242C87.6847 33.0312 87.131 32.6152 86.6857 32.0762ZM98.0812 33.5H96.6398V20.3164H98.0812V29.5977L98.7668 28.7627L102.59 24.7109H104.401L100.815 28.5254L104.954 33.5H103.082L99.8127 29.5801L98.0812 31.4258V33.5Z" fill="#98989A"/>
</svg>
