<svg width="87" height="43" viewBox="0 0 87 43" fill="none" xmlns="http://www.w3.org/2000/svg">
<rect x="0.5" y="0.5" width="86" height="42" rx="21" fill="#1A1A1A"/>
<rect x="0.5" y="0.5" width="86" height="42" rx="21" stroke="#262626"/>
<path d="M28 15.6041C28.6507 14.8484 29.7765 14 31.4907 14C34.4883 14 36.5 16.7938 36.5 19.3953C36.5 24.8338 29.6792 29 28 29C26.3208 29 19.5 24.8338 19.5 19.3953C19.5 16.7938 21.5117 14 24.5093 14C26.2235 14 27.3493 14.8484 28 15.6041Z" stroke="#666666" stroke-width="1.5" stroke-linecap="round" stroke-linejoin="round"/>
<path d="M49.1416 28H47.5947V16.3457L45.1514 17.2334L44.6592 15.9854L47.876 14.8164H49.1416V28ZM58.8057 28H57.2588V24.8535H50.6231V23.6318L57.2676 14.8164H58.8057V23.4912H60.4141V24.8535H58.8057V28ZM52.3809 23.4912H57.2588V17.0137L52.3809 23.4912ZM63.337 28H61.8956V14.8164H63.337V24.0977L64.0225 23.2627L67.8458 19.2109H69.6563L66.0704 23.0254L70.21 28H68.338L65.0684 24.0801L63.337 25.9258V28Z" fill="#98989A"/>
</svg>
