<svg width="81" height="43" viewBox="0 0 81 43" fill="none" xmlns="http://www.w3.org/2000/svg">
<rect x="0.5" y="0.5" width="80" height="42" rx="21" fill="#1A1A1A"/>
<rect x="0.5" y="0.5" width="80" height="42" rx="21" stroke="#262626"/>
<path d="M26.0384 23.4616L20.1719 20.7951C19.3645 20.4281 19.399 19.2697 20.2267 18.9513L34.8999 13.3078C35.7087 12.9968 36.5033 13.7914 36.1922 14.6001L30.5487 29.2733C30.2303 30.1011 29.072 30.1355 28.705 29.3281L26.0384 23.4616ZM26.0384 23.4616L30.4231 19.077" stroke="#666666" stroke-width="1.5" stroke-linecap="round" stroke-linejoin="round"/>
<path d="M53.6152 28H45.6963V27.0244C46.7803 26.0986 47.7031 25.252 48.4648 24.4844C49.2324 23.7168 49.8564 23.0049 50.3369 22.3486C50.8174 21.6924 51.1689 21.0742 51.3916 20.4941C51.6201 19.9141 51.7344 19.3516 51.7344 18.8066C51.7344 18.2383 51.626 17.7373 51.4092 17.3037C51.1924 16.8643 50.8906 16.5244 50.5039 16.2842C50.1172 16.0381 49.6689 15.915 49.1592 15.915C48.5791 15.915 48.0254 16.082 47.498 16.416C46.9766 16.7441 46.5488 17.1982 46.2148 17.7783L45.3623 16.8203C45.8135 16.1055 46.3965 15.5488 47.1113 15.1504C47.8262 14.752 48.5938 14.5527 49.4141 14.5527C50.1758 14.5527 50.8496 14.7227 51.4355 15.0625C52.0215 15.3965 52.4814 15.8594 52.8154 16.4512C53.1494 17.043 53.3164 17.7256 53.3164 18.499C53.3164 19.126 53.1992 19.7734 52.9648 20.4414C52.7305 21.1035 52.3818 21.7803 51.9189 22.4717C51.4561 23.1572 50.8818 23.8486 50.1963 24.5459C49.5166 25.2432 48.7314 25.9404 47.8408 26.6377H53.6152V28ZM59.5704 28.2637C58.6446 28.2637 57.8477 27.9971 57.1797 27.4639C56.5118 26.9248 55.9991 26.1455 55.6416 25.126C55.2842 24.1006 55.1055 22.8584 55.1055 21.3994C55.1055 19.9463 55.2842 18.71 55.6416 17.6904C55.9991 16.6709 56.5118 15.8945 57.1797 15.3613C57.8477 14.8223 58.6446 14.5527 59.5704 14.5527C60.502 14.5527 61.2989 14.8223 61.961 15.3613C62.6289 15.8945 63.1416 16.6709 63.4991 17.6904C63.8565 18.71 64.0352 19.9463 64.0352 21.3994C64.0352 22.8584 63.8565 24.1006 63.4991 25.126C63.1475 26.1455 62.6377 26.9248 61.9698 27.4639C61.3018 27.9971 60.502 28.2637 59.5704 28.2637ZM59.5704 26.8926C60.4786 26.8926 61.1846 26.4092 61.6885 25.4424C62.1983 24.4756 62.4532 23.1279 62.4532 21.3994C62.4532 19.6709 62.1983 18.3262 61.6885 17.3652C61.1846 16.4043 60.4786 15.9238 59.5704 15.9238C58.668 15.9238 57.962 16.4043 57.4522 17.3652C56.9424 18.3262 56.6875 19.6709 56.6875 21.3994C56.6875 23.1279 56.9424 24.4756 57.4522 25.4424C57.962 26.4092 58.668 26.8926 59.5704 26.8926Z" fill="#98989A"/>
</svg>
