<svg width="90" height="43" viewBox="0 0 90 43" fill="none" xmlns="http://www.w3.org/2000/svg">
<rect x="0.5" y="0.5" width="89" height="42" rx="21" fill="#1A1A1A"/>
<rect x="0.5" y="0.5" width="89" height="42" rx="21" stroke="#262626"/>
<path d="M27.645 30.4107L27.6384 30.4071L27.6158 30.3949C27.5965 30.3844 27.5689 30.3693 27.5336 30.3496C27.4629 30.3101 27.3612 30.2524 27.233 30.1769C26.9765 30.0261 26.6132 29.8039 26.1785 29.515C25.3107 28.9381 24.1512 28.0901 22.9886 27.0063C20.6878 24.8615 18.25 21.6751 18.25 17.75C18.25 14.8219 20.7136 12.5 23.6875 12.5C25.4364 12.5 27.0023 13.2991 28 14.5516C28.9977 13.2991 30.5636 12.5 32.3125 12.5C35.2864 12.5 37.75 14.8219 37.75 17.75C37.75 21.6751 35.3122 24.8615 33.0114 27.0063C31.8488 28.0901 30.6893 28.9381 29.8215 29.515C29.3868 29.8039 29.0235 30.0261 28.767 30.1769C28.6388 30.2524 28.5371 30.3101 28.4664 30.3496C28.4311 30.3693 28.4035 30.3844 28.3842 30.3949L28.3616 30.4071L28.355 30.4107L28.3523 30.4121C28.1323 30.5289 27.8677 30.5289 27.6477 30.4121L27.645 30.4107Z" stroke="#666666" stroke-width="1.5" stroke-linejoin="round"/>
<path d="M44.7471 26.7695L45.3975 25.627C45.8838 26.0488 46.3848 26.3682 46.9004 26.585C47.4219 26.7959 47.9492 26.9014 48.4824 26.9014C49.0391 26.9014 49.5283 26.793 49.9502 26.5762C50.3721 26.3535 50.7031 26.0488 50.9434 25.6621C51.1836 25.2695 51.3037 24.8184 51.3037 24.3086C51.3037 23.4883 50.9873 22.8496 50.3545 22.3926C49.7217 21.9297 48.8428 21.6982 47.7178 21.6982H47.2607V20.5732H47.7178C48.3271 20.5732 48.8691 20.4648 49.3438 20.248C49.8242 20.0312 50.2021 19.7354 50.4775 19.3604C50.7529 18.9795 50.8906 18.5488 50.8906 18.0684C50.8906 17.6523 50.7852 17.2832 50.5742 16.9609C50.3691 16.6328 50.085 16.3779 49.7217 16.1963C49.3584 16.0088 48.9424 15.915 48.4736 15.915C48.0166 15.915 47.5596 16.0117 47.1025 16.2051C46.6514 16.3926 46.2148 16.668 45.793 17.0312L45.0547 15.959C45.541 15.5078 46.0889 15.1621 46.6982 14.9219C47.3076 14.6758 47.9404 14.5527 48.5967 14.5527C49.3232 14.5527 49.9678 14.6934 50.5303 14.9746C51.0986 15.2559 51.5469 15.6426 51.875 16.1348C52.2031 16.6211 52.3672 17.1777 52.3672 17.8047C52.3672 18.5488 52.1357 19.2139 51.6729 19.7998C51.2158 20.3857 50.624 20.8135 49.8975 21.083C50.8291 21.2939 51.5645 21.6953 52.1035 22.2871C52.6426 22.8789 52.9121 23.6113 52.9121 24.4844C52.9121 25.2109 52.7246 25.8613 52.3496 26.4355C51.9746 27.0039 51.4619 27.4521 50.8115 27.7803C50.1611 28.1025 49.417 28.2637 48.5791 28.2637C47.8643 28.2637 47.1787 28.1377 46.5225 27.8857C45.8721 27.6279 45.2803 27.2559 44.7471 26.7695ZM62.6553 28H54.7364V27.0244C55.8204 26.0986 56.7432 25.252 57.5049 24.4844C58.2725 23.7168 58.8965 23.0049 59.377 22.3486C59.8575 21.6924 60.209 21.0742 60.4317 20.4941C60.6602 19.9141 60.7745 19.3516 60.7745 18.8066C60.7745 18.2383 60.6661 17.7373 60.4493 17.3037C60.2325 16.8643 59.9307 16.5244 59.544 16.2842C59.1573 16.0381 58.709 15.915 58.1993 15.915C57.6192 15.915 57.0655 16.082 56.5381 16.416C56.0166 16.7441 55.5889 17.1982 55.2549 17.7783L54.4024 16.8203C54.8536 16.1055 55.4366 15.5488 56.1514 15.1504C56.8663 14.752 57.6338 14.5527 58.4541 14.5527C59.2159 14.5527 59.8897 14.7227 60.4756 15.0625C61.0616 15.3965 61.5215 15.8594 61.8555 16.4512C62.1895 17.043 62.3565 17.7256 62.3565 18.499C62.3565 19.126 62.2393 19.7734 62.0049 20.4414C61.7705 21.1035 61.4219 21.7803 60.959 22.4717C60.4961 23.1572 59.9219 23.8486 59.2364 24.5459C58.5567 25.2432 57.7715 25.9404 56.8809 26.6377H62.6553V28ZM66.2022 28H64.7608V14.8164H66.2022V24.0977L66.8878 23.2627L70.711 19.2109H72.5216L68.9356 23.0254L73.0753 28H71.2032L67.9337 24.0801L66.2022 25.9258V28Z" fill="#98989A"/>
</svg>
