<svg width="104" height="43" viewBox="0 0 104 43" fill="none" xmlns="http://www.w3.org/2000/svg">
<rect x="0.5" y="0.5" width="103" height="42" rx="21" fill="#1A1A1A"/>
<rect x="0.5" y="0.5" width="103" height="42" rx="21" stroke="#262626"/>
<path d="M27.645 30.4107L27.6384 30.4072L27.6158 30.3949C27.5965 30.3844 27.5689 30.3693 27.5336 30.3496C27.4629 30.3101 27.3612 30.2524 27.233 30.1769C26.9765 30.0261 26.6132 29.8039 26.1785 29.515C25.3107 28.9381 24.1512 28.0901 22.9886 27.0063C20.6878 24.8615 18.25 21.6751 18.25 17.75C18.25 14.8219 20.7136 12.5 23.6875 12.5C25.4364 12.5 27.0023 13.2991 28 14.5516C28.9977 13.2991 30.5636 12.5 32.3125 12.5C35.2864 12.5 37.75 14.8219 37.75 17.75C37.75 21.6751 35.3122 24.8615 33.0114 27.0063C31.8488 28.0901 30.6893 28.9381 29.8215 29.515C29.3868 29.8039 29.0235 30.0261 28.767 30.1769C28.6388 30.2524 28.5371 30.3101 28.4664 30.3496C28.4311 30.3693 28.4035 30.3844 28.3842 30.3949L28.3616 30.4072L28.355 30.4107L28.3523 30.4121C28.1323 30.5289 27.8677 30.5289 27.6477 30.4121L27.645 30.4107Z" fill="#FF5500"/>
<path d="M53.6152 28H45.6963V27.0244C46.7803 26.0986 47.7031 25.252 48.4648 24.4844C49.2324 23.7168 49.8564 23.0049 50.3369 22.3486C50.8174 21.6924 51.1689 21.0742 51.3916 20.4941C51.6201 19.9141 51.7344 19.3516 51.7344 18.8066C51.7344 18.2383 51.626 17.7373 51.4092 17.3037C51.1924 16.8643 50.8906 16.5244 50.5039 16.2842C50.1172 16.0381 49.6689 15.915 49.1592 15.915C48.5791 15.915 48.0254 16.082 47.498 16.416C46.9766 16.7441 46.5488 17.1982 46.2148 17.7783L45.3623 16.8203C45.8135 16.1055 46.3965 15.5488 47.1113 15.1504C47.8262 14.752 48.5938 14.5527 49.4141 14.5527C50.1758 14.5527 50.8496 14.7227 51.4355 15.0625C52.0215 15.3965 52.4814 15.8594 52.8154 16.4512C53.1494 17.043 53.3164 17.7256 53.3164 18.499C53.3164 19.126 53.1992 19.7734 52.9648 20.4414C52.7305 21.1035 52.3818 21.7803 51.9189 22.4717C51.4561 23.1572 50.8818 23.8486 50.1963 24.5459C49.5166 25.2432 48.7314 25.9404 47.8408 26.6377H53.6152V28ZM62.6729 28H61.126V24.8535H54.4903V23.6318L61.1348 14.8164H62.6729V23.4912H64.2813V24.8535H62.6729V28ZM56.2481 23.4912H61.126V17.0137L56.2481 23.4912ZM66.4307 28.1758C66.1729 28.1758 65.962 28.0967 65.7979 27.9385C65.6397 27.7744 65.5606 27.5635 65.5606 27.3057C65.5606 27.042 65.6397 26.8281 65.7979 26.6641C65.962 26.5 66.1729 26.418 66.4307 26.418C66.6886 26.418 66.8995 26.5 67.0636 26.6641C67.2335 26.8281 67.3184 27.042 67.3184 27.3057C67.3184 27.5635 67.2335 27.7744 67.0636 27.9385C66.8995 28.0967 66.6886 28.1758 66.4307 28.1758ZM68.6857 26.5762L69.5382 25.3545C69.8195 25.835 70.215 26.2129 70.7247 26.4883C71.2345 26.7578 71.7999 26.8926 72.421 26.8926C73.0304 26.8926 73.5665 26.7666 74.0294 26.5146C74.4923 26.2568 74.8527 25.9023 75.1105 25.4512C75.3683 24.9941 75.4972 24.4668 75.4972 23.8691C75.4972 23.2715 75.3683 22.7471 75.1105 22.2959C74.8527 21.8389 74.4923 21.4844 74.0294 21.2324C73.5665 20.9805 73.0333 20.8545 72.4298 20.8545C72.0255 20.8545 71.6446 20.916 71.2872 21.0391C70.9357 21.1562 70.6163 21.3291 70.3292 21.5576L69.5382 21.0566L70.1183 14.8164H76.4816V16.1875H71.5421L71.173 19.9404C71.671 19.7705 72.2042 19.6855 72.7726 19.6855C73.6163 19.6855 74.3605 19.8672 75.005 20.2305C75.6495 20.5879 76.1534 21.083 76.5167 21.7158C76.8859 22.3486 77.0704 23.0811 77.0704 23.9131C77.0704 24.7686 76.8771 25.5244 76.4904 26.1807C76.1036 26.8311 75.5675 27.3408 74.882 27.71C74.1964 28.0791 73.4054 28.2637 72.5089 28.2637C71.7296 28.2637 71.0089 28.1172 70.3468 27.8242C69.6847 27.5312 69.131 27.1152 68.6857 26.5762ZM80.0812 28H78.6398V14.8164H80.0812V24.0977L80.7668 23.2627L84.59 19.2109H86.4005L82.8146 23.0254L86.9543 28H85.0822L81.8127 24.0801L80.0812 25.9258V28Z" fill="#98989A"/>
</svg>
