<svg width="80" height="43" viewBox="0 0 80 43" fill="none" xmlns="http://www.w3.org/2000/svg">
<rect x="0.5" y="0.5" width="79" height="42" rx="21" fill="#1A1A1A"/>
<rect x="0.5" y="0.5" width="79" height="42" rx="21" stroke="#262626"/>
<path d="M24.4858 28.6888C25.5466 29.2083 26.7392 29.5 28 29.5C32.4183 29.5 36 25.9183 36 21.5C36 17.0817 32.4183 13.5 28 13.5C23.5817 13.5 20 17.0817 20 21.5C20 23.1401 20.4936 24.665 21.3403 25.9341M24.4858 28.6888L20 29.5L21.3403 25.9341M24.4858 28.6888L24.4923 28.6877M21.3403 25.9341L21.3415 25.9308" stroke="#666666" stroke-width="1.5" stroke-linecap="round" stroke-linejoin="round"/>
<path d="M44.7471 26.5762L45.5996 25.3545C45.8809 25.835 46.2764 26.2129 46.7861 26.4883C47.2959 26.7578 47.8613 26.8926 48.4824 26.8926C49.0918 26.8926 49.6279 26.7666 50.0908 26.5146C50.5537 26.2568 50.9141 25.9023 51.1719 25.4512C51.4297 24.9941 51.5586 24.4668 51.5586 23.8691C51.5586 23.2715 51.4297 22.7471 51.1719 22.2959C50.9141 21.8389 50.5537 21.4844 50.0908 21.2324C49.6279 20.9805 49.0947 20.8545 48.4912 20.8545C48.0869 20.8545 47.7061 20.916 47.3486 21.0391C46.9971 21.1562 46.6777 21.3291 46.3906 21.5576L45.5996 21.0566L46.1797 14.8164H52.543V16.1875H47.6035L47.2344 19.9404C47.7324 19.7705 48.2656 19.6855 48.834 19.6855C49.6777 19.6855 50.4219 19.8672 51.0664 20.2305C51.7109 20.5879 52.2148 21.083 52.5781 21.7158C52.9473 22.3486 53.1318 23.0811 53.1318 23.9131C53.1318 24.7686 52.9385 25.5244 52.5518 26.1807C52.165 26.8311 51.6289 27.3408 50.9434 27.71C50.2578 28.0791 49.4668 28.2637 48.5703 28.2637C47.791 28.2637 47.0703 28.1172 46.4082 27.8242C45.7461 27.5312 45.1924 27.1152 44.7471 26.5762ZM58.5508 28.2637C57.625 28.2637 56.8282 27.9971 56.1602 27.4639C55.4922 26.9248 54.9795 26.1455 54.6221 25.126C54.2647 24.1006 54.086 22.8584 54.086 21.3994C54.086 19.9463 54.2647 18.71 54.6221 17.6904C54.9795 16.6709 55.4922 15.8945 56.1602 15.3613C56.8282 14.8223 57.625 14.5527 58.5508 14.5527C59.4825 14.5527 60.2793 14.8223 60.9414 15.3613C61.6094 15.8945 62.1221 16.6709 62.4795 17.6904C62.837 18.71 63.0157 19.9463 63.0157 21.3994C63.0157 22.8584 62.837 24.1006 62.4795 25.126C62.128 26.1455 61.6182 26.9248 60.9502 27.4639C60.2823 27.9971 59.4825 28.2637 58.5508 28.2637ZM58.5508 26.8926C59.459 26.8926 60.1651 26.4092 60.669 25.4424C61.1788 24.4756 61.4336 23.1279 61.4336 21.3994C61.4336 19.6709 61.1788 18.3262 60.669 17.3652C60.1651 16.4043 59.459 15.9238 58.5508 15.9238C57.6485 15.9238 56.9424 16.4043 56.4327 17.3652C55.9229 18.3262 55.668 19.6709 55.668 21.3994C55.668 23.1279 55.9229 24.4756 56.4327 25.4424C56.9424 26.4092 57.6485 26.8926 58.5508 26.8926Z" fill="#98989A"/>
</svg>
