<svg width="117" height="54" viewBox="0 0 117 54" fill="none" xmlns="http://www.w3.org/2000/svg">
<rect x="0.5" y="0.5" width="116" height="53" rx="26.5" fill="#141414"/>
<rect x="0.5" y="0.5" width="116" height="53" rx="26.5" stroke="#262626"/>
<path d="M38.2214 29.7788L29.9105 26.0012C28.7668 25.4813 28.8156 23.8403 29.9882 23.3893L50.7752 15.3942C51.9209 14.9536 53.0467 16.0793 52.606 17.225L44.611 38.0121C44.16 39.1847 42.519 39.2335 41.9991 38.0897L38.2214 29.7788ZM38.2214 29.7788L44.4331 23.5673" stroke="#666666" stroke-width="1.5" stroke-linecap="round" stroke-linejoin="round"/>
<path d="M71.6152 33.5H63.6963V32.5244C64.7803 31.5986 65.7031 30.752 66.4648 29.9844C67.2324 29.2168 67.8564 28.5049 68.3369 27.8486C68.8174 27.1924 69.1689 26.5742 69.3916 25.9941C69.6201 25.4141 69.7344 24.8516 69.7344 24.3066C69.7344 23.7383 69.626 23.2373 69.4092 22.8037C69.1924 22.3643 68.8906 22.0244 68.5039 21.7842C68.1172 21.5381 67.6689 21.415 67.1592 21.415C66.5791 21.415 66.0254 21.582 65.498 21.916C64.9766 22.2441 64.5488 22.6982 64.2148 23.2783L63.3623 22.3203C63.8135 21.6055 64.3965 21.0488 65.1113 20.6504C65.8262 20.252 66.5938 20.0527 67.4141 20.0527C68.1758 20.0527 68.8496 20.2227 69.4355 20.5625C70.0215 20.8965 70.4814 21.3594 70.8154 21.9512C71.1494 22.543 71.3164 23.2256 71.3164 23.999C71.3164 24.626 71.1992 25.2734 70.9648 25.9414C70.7305 26.6035 70.3818 27.2803 69.9189 27.9717C69.4561 28.6572 68.8818 29.3486 68.1963 30.0459C67.5166 30.7432 66.7314 31.4404 65.8408 32.1377H71.6152V33.5ZM77.5704 33.7637C76.6446 33.7637 75.8477 33.4971 75.1797 32.9639C74.5118 32.4248 73.9991 31.6455 73.6416 30.626C73.2842 29.6006 73.1055 28.3584 73.1055 26.8994C73.1055 25.4463 73.2842 24.21 73.6416 23.1904C73.9991 22.1709 74.5118 21.3945 75.1797 20.8613C75.8477 20.3223 76.6446 20.0527 77.5704 20.0527C78.502 20.0527 79.2989 20.3223 79.961 20.8613C80.6289 21.3945 81.1416 22.1709 81.4991 23.1904C81.8565 24.21 82.0352 25.4463 82.0352 26.8994C82.0352 28.3584 81.8565 29.6006 81.4991 30.626C81.1475 31.6455 80.6377 32.4248 79.9698 32.9639C79.3018 33.4971 78.502 33.7637 77.5704 33.7637ZM77.5704 32.3926C78.4786 32.3926 79.1846 31.9092 79.6885 30.9424C80.1983 29.9756 80.4532 28.6279 80.4532 26.8994C80.4532 25.1709 80.1983 23.8262 79.6885 22.8652C79.1846 21.9043 78.4786 21.4238 77.5704 21.4238C76.668 21.4238 75.962 21.9043 75.4522 22.8652C74.9424 23.8262 74.6875 25.1709 74.6875 26.8994C74.6875 28.6279 74.9424 29.9756 75.4522 30.9424C75.962 31.9092 76.668 32.3926 77.5704 32.3926ZM87.252 33.7637C86.3907 33.7637 85.6407 33.5645 85.002 33.166C84.3634 32.7676 83.8682 32.2051 83.5167 31.4785C83.1651 30.752 82.9893 29.8965 82.9893 28.9121C82.9893 28.0801 83.1153 27.2568 83.3673 26.4424C83.6251 25.6279 83.9884 24.8457 84.4571 24.0957C84.9317 23.3398 85.503 22.6426 86.171 22.0039C86.8389 21.3594 87.586 20.7969 88.4122 20.3164L89.1329 21.3271C88.3888 21.7783 87.712 22.3057 87.1026 22.9092C86.4932 23.5127 85.9688 24.1631 85.5294 24.8604C85.0899 25.5576 84.753 26.2725 84.5186 27.0049C84.8819 26.5713 85.3272 26.2314 85.8546 25.9854C86.3819 25.7393 86.9649 25.6162 87.6036 25.6162C88.3712 25.6162 89.0509 25.7861 89.6427 26.126C90.2403 26.4658 90.7091 26.9346 91.0489 27.5322C91.3888 28.124 91.5587 28.8037 91.5587 29.5713C91.5587 30.3799 91.3712 31.1006 90.9962 31.7334C90.627 32.3604 90.1173 32.8555 89.4669 33.2188C88.8223 33.582 88.0841 33.7637 87.252 33.7637ZM87.3136 32.4014C87.8233 32.4014 88.2774 32.2783 88.6759 32.0322C89.0802 31.7803 89.3966 31.4375 89.6251 31.0039C89.8595 30.5703 89.9766 30.084 89.9766 29.5449C89.9766 29.0117 89.8624 28.543 89.6339 28.1387C89.4112 27.7344 89.1007 27.418 88.7022 27.1895C88.3096 26.9551 87.8555 26.8379 87.3399 26.8379C86.8184 26.8379 86.3526 26.9551 85.9425 27.1895C85.5323 27.4238 85.21 27.7461 84.9757 28.1562C84.7413 28.5664 84.6241 29.0381 84.6241 29.5713C84.6241 30.1045 84.7413 30.585 84.9757 31.0127C85.2159 31.4404 85.5382 31.7803 85.9425 32.0322C86.3468 32.2783 86.8038 32.4014 87.3136 32.4014Z" fill="#98989A"/>
</svg>
