<svg width="116" height="54" viewBox="0 0 116 54" fill="none" xmlns="http://www.w3.org/2000/svg">
<rect x="0.5" y="0.5" width="115" height="53" rx="26.5" fill="#141414"/>
<rect x="0.5" y="0.5" width="115" height="53" rx="26.5" stroke="#262626"/>
<path d="M54.6048 25.339C54.9669 25.7945 55.1673 26.3864 55.1673 27C55.1673 27.6137 54.9669 28.2055 54.6048 28.6611C52.312 31.4625 47.093 36.9167 41.0007 36.9167C34.9083 36.9167 29.6894 31.4625 27.3966 28.6611C27.0344 28.2055 26.834 27.6137 26.834 27C26.834 26.3864 27.0344 25.7945 27.3966 25.339C29.6894 22.5375 34.9083 17.0833 41.0007 17.0833C47.093 17.0833 52.312 22.5375 54.6048 25.339Z" stroke="#98989A" stroke-width="1.5" stroke-linecap="round" stroke-linejoin="round"/>
<path d="M41.0014 31.4072C43.4134 31.4072 45.3687 29.4339 45.3687 26.9998C45.3687 24.5657 43.4134 22.5925 41.0014 22.5925C38.5894 22.5925 36.6341 24.5657 36.6341 26.9998C36.6341 29.4339 38.5894 31.4072 41.0014 31.4072Z" stroke="#98989A" stroke-width="1.5" stroke-linecap="round" stroke-linejoin="round"/>
<path d="M62.7471 32.0762L63.5996 30.8545C63.8809 31.335 64.2764 31.7129 64.7861 31.9883C65.2959 32.2578 65.8613 32.3926 66.4824 32.3926C67.0918 32.3926 67.6279 32.2666 68.0908 32.0146C68.5537 31.7568 68.9141 31.4023 69.1719 30.9512C69.4297 30.4941 69.5586 29.9668 69.5586 29.3691C69.5586 28.7715 69.4297 28.2471 69.1719 27.7959C68.9141 27.3389 68.5537 26.9844 68.0908 26.7324C67.6279 26.4805 67.0947 26.3545 66.4912 26.3545C66.0869 26.3545 65.7061 26.416 65.3486 26.5391C64.9971 26.6562 64.6777 26.8291 64.3906 27.0576L63.5996 26.5566L64.1797 20.3164H70.543V21.6875H65.6035L65.2344 25.4404C65.7324 25.2705 66.2656 25.1855 66.834 25.1855C67.6777 25.1855 68.4219 25.3672 69.0664 25.7305C69.7109 26.0879 70.2148 26.583 70.5781 27.2158C70.9473 27.8486 71.1318 28.5811 71.1318 29.4131C71.1318 30.2686 70.9385 31.0244 70.5518 31.6807C70.165 32.3311 69.6289 32.8408 68.9434 33.21C68.2578 33.5791 67.4668 33.7637 66.5703 33.7637C65.791 33.7637 65.0703 33.6172 64.4082 33.3242C63.7461 33.0312 63.1924 32.6152 62.7471 32.0762ZM76.5508 33.7637C75.625 33.7637 74.8282 33.4971 74.1602 32.9639C73.4922 32.4248 72.9795 31.6455 72.6221 30.626C72.2647 29.6006 72.086 28.3584 72.086 26.8994C72.086 25.4463 72.2647 24.21 72.6221 23.1904C72.9795 22.1709 73.4922 21.3945 74.1602 20.8613C74.8282 20.3223 75.625 20.0527 76.5508 20.0527C77.4825 20.0527 78.2793 20.3223 78.9414 20.8613C79.6094 21.3945 80.1221 22.1709 80.4795 23.1904C80.837 24.21 81.0157 25.4463 81.0157 26.8994C81.0157 28.3584 80.837 29.6006 80.4795 30.626C80.128 31.6455 79.6182 32.4248 78.9502 32.9639C78.2823 33.4971 77.4825 33.7637 76.5508 33.7637ZM76.5508 32.3926C77.459 32.3926 78.1651 31.9092 78.669 30.9424C79.1788 29.9756 79.4336 28.6279 79.4336 26.8994C79.4336 25.1709 79.1788 23.8262 78.669 22.8652C78.1651 21.9043 77.459 21.4238 76.5508 21.4238C75.6485 21.4238 74.9424 21.9043 74.4327 22.8652C73.9229 23.8262 73.668 25.1709 73.668 26.8994C73.668 28.6279 73.9229 29.9756 74.4327 30.9424C74.9424 31.9092 75.6485 32.3926 76.5508 32.3926ZM84.0264 33.5H82.585V20.3164H84.0264V29.5977L84.712 28.7627L88.5352 24.7109H90.3458L86.7598 28.5254L90.8995 33.5H89.0274L85.7579 29.5801L84.0264 31.4258V33.5Z" fill="#98989A"/>
</svg>
